<svg width="19" height="20" viewBox="0 0 19 20" fill="none" xmlns="http://www.w3.org/2000/svg">
<path d="M2.15876 2.65923C1.40446 2.65923 0.792969 3.27071 0.792969 4.02502V6.6997H18.1499V4.02502C18.1499 3.27071 17.5384 2.65923 16.7841 2.65923H15.4752V1.52107C15.4752 0.76676 14.8638 0.155273 14.1095 0.155273H12.516C11.7617 0.155273 11.1502 0.76676 11.1502 1.52107V2.65923H7.73575V1.52107C7.73575 0.76676 7.12426 0.155273 6.36996 0.155273H4.66272C3.90841 0.155273 3.29692 0.76676 3.29692 1.52107V2.65923H2.15876Z" fill="white"/>
<path fill-rule="evenodd" clip-rule="evenodd" d="M2.15876 19.8455C1.40445 19.8455 0.792969 19.234 0.792969 18.4797V8.46385H18.2068V18.4797C18.2068 19.234 17.5953 19.8455 16.841 19.8455H2.15876ZM4.09364 17.0001C3.8422 17.0001 3.63837 16.7962 3.63837 16.5448V11.2523H15.3045V16.5448C15.3045 16.7962 15.1007 17.0001 14.8493 17.0001H4.09364Z" fill="white"/>
</svg>
