<svg width="17" height="18" viewBox="0 0 17 18" fill="none" xmlns="http://www.w3.org/2000/svg">
<path fill-rule="evenodd" clip-rule="evenodd" d="M7.19666 0.385742H9.82896C10.3412 0.385742 10.8005 0.701198 10.9844 1.17927L11.744 3.15424L13.9474 2.68739C14.4485 2.58123 14.9632 2.79463 15.2422 3.22421L16.6758 5.43184C16.9548 5.86141 16.9404 6.41844 16.6396 6.83302L15.0395 9.03834L16.6396 11.2437C16.9404 11.6582 16.9548 12.2153 16.6758 12.6448L15.2422 14.8525C14.9632 15.2821 14.4485 15.4955 13.9474 15.3893L11.7164 14.9166L10.9844 16.8198C10.8005 17.2979 10.3412 17.6133 9.82896 17.6133H7.19666C6.68445 17.6133 6.22513 17.2979 6.04126 16.8198L5.30733 14.9116L3.05266 15.3893C2.55157 15.4955 2.03685 15.2821 1.75788 14.8525L0.324224 12.6449C0.045253 12.2153 0.0596567 11.6583 0.360457 11.2437L1.96051 9.03836L0.360457 6.83304C0.0596574 6.41845 0.0452532 5.86143 0.324224 5.43185L1.75788 3.22422C2.03685 2.79464 2.55157 2.58124 3.05266 2.68741L5.27973 3.15926L6.04126 1.17927C6.22513 0.701199 6.68445 0.385742 7.19666 0.385742ZM8.51281 12.3522C10.3644 12.3522 11.8655 10.8512 11.8655 8.99955C11.8655 7.14791 10.3644 5.64687 8.51281 5.64687C6.66118 5.64687 5.16013 7.14791 5.16013 8.99955C5.16013 10.8512 6.66118 12.3522 8.51281 12.3522Z" fill="white"/>
</svg>
