<svg width="21" height="20" viewBox="0 0 21 20" fill="none" xmlns="http://www.w3.org/2000/svg">
<path d="M2.39941 8.22222V18.0436C2.39941 18.2957 2.60374 18.5 2.85579 18.5H7.3625C7.61455 18.5 7.81888 18.2957 7.81888 18.0436V13.4228C7.81888 13.1708 8.0232 12.9664 8.27525 12.9664H12.7249C12.977 12.9664 13.1813 13.1708 13.1813 13.4228V18.0436C13.1813 18.2957 13.3856 18.5 13.6377 18.5H18.1444C18.3964 18.5 18.6008 18.2957 18.6008 18.0436V8.22222C18.6008 8.08385 18.538 7.95296 18.4301 7.86634L10.7858 1.72937C10.6189 1.59538 10.3813 1.59538 10.2144 1.72937L2.57008 7.86634C2.46219 7.95296 2.39941 8.08385 2.39941 8.22222Z" stroke="white" stroke-width="2.85235"/>
</svg>
