<svg width="15" height="15" viewBox="0 0 15 15" fill="none" xmlns="http://www.w3.org/2000/svg">
<path d="M2.1053 14.4934H12.8949C13.7777 14.4934 14.4934 13.7777 14.4934 12.8949V2.1053C14.4934 1.22249 13.7777 0.506836 12.8949 0.506836H2.1053C1.22249 0.506836 0.506836 1.22249 0.506836 2.1053V12.8949C0.506836 13.7777 1.22249 14.4934 2.1053 14.4934Z" stroke="#ADADAD" stroke-width="0.948281"/>
<path d="M7.26033 10.837L4.47779 8.62397C4.12896 8.34654 3.62062 8.40803 3.34801 8.76063L0.506836 12.4354V12.895C0.506836 13.7778 1.22249 14.4935 2.1053 14.4935H12.8949C13.7777 14.4935 14.4934 13.7778 14.4934 12.895V9.87791L11.4269 6.37104C11.0797 5.97393 10.4497 6.0162 10.1587 6.45614L7.26033 10.837Z" fill="#ADADAD"/>
<path d="M6.52104 5.16245C6.23413 4.87554 5.76895 4.87554 5.48204 5.16245C5.19513 5.44936 5.19513 5.91454 5.48204 6.20145C5.76895 6.48836 6.23413 6.48836 6.52104 6.20145C6.80795 5.91454 6.80795 5.44936 6.52104 5.16245Z" fill="#ADADAD"/>
</svg>
