<svg width="20" height="22" viewBox="0 0 20 22" fill="none" xmlns="http://www.w3.org/2000/svg">
<path d="M12.5865 16.0509V17.0509C12.5865 17.8465 12.2704 18.6096 11.7078 19.1722C11.1452 19.7348 10.3821 20.0509 9.58647 20.0509C8.79081 20.0509 8.02775 19.7348 7.46513 19.1722C6.90252 18.6096 6.58645 17.8465 6.58645 17.0509V16.0509M12.5865 16.0509H6.58645M12.5865 16.0509H16.1765C16.5595 16.0509 16.7515 16.0509 16.9065 15.9989C17.0523 15.9495 17.1847 15.8671 17.2935 15.7582C17.4022 15.6493 17.4844 15.5167 17.5335 15.3708C17.5865 15.2148 17.5865 15.0228 17.5865 14.6368C17.5865 14.4678 17.5865 14.3838 17.5725 14.3028C17.5479 14.1514 17.4887 14.0077 17.3995 13.8828C17.3515 13.8158 17.2915 13.7558 17.1725 13.6368L16.7825 13.2468C16.7203 13.1846 16.671 13.1107 16.6373 13.0293C16.6037 12.948 16.5864 12.8608 16.5865 12.7728V9.05082C16.5865 8.13156 16.4054 7.2213 16.0537 6.37202C15.7019 5.52274 15.1863 4.75106 14.5362 4.10104C13.8862 3.45103 13.1145 2.93541 12.2653 2.58363C11.416 2.23184 10.5057 2.05078 9.58647 2.05078C8.66721 2.05078 7.75695 2.23184 6.90767 2.58363C6.05839 2.93541 5.28671 3.45103 4.63669 4.10104C3.98668 4.75106 3.47106 5.52274 3.11928 6.37202C2.76749 7.2213 2.58643 8.13156 2.58643 9.05082V12.7728C2.58649 12.8608 2.56922 12.948 2.53559 13.0293C2.50196 13.1107 2.45263 13.1846 2.39043 13.2468L2.00043 13.6368C1.88043 13.7568 1.82143 13.8158 1.77443 13.8818C1.68445 14.0068 1.62456 14.1509 1.59943 14.3028C1.58643 14.3828 1.58643 14.4678 1.58643 14.6368C1.58643 15.0228 1.58643 15.2148 1.63843 15.3708C1.68776 15.5169 1.7702 15.6496 1.87932 15.7586C1.98844 15.8675 2.12127 15.9498 2.26743 15.9989C2.42243 16.0509 2.61343 16.0509 2.99643 16.0509H6.58645" stroke="black" stroke-width="3.10079" stroke-linecap="round" stroke-linejoin="round"/>
</svg>
