<svg width="17" height="17" viewBox="0 0 17 17" fill="none" xmlns="http://www.w3.org/2000/svg">
<path d="M14.9359 1.75H10.7359C10.515 1.75 10.3359 1.92909 10.3359 2.15V6.35C10.3359 6.57091 10.515 6.75 10.7359 6.75H14.9359C15.1569 6.75 15.3359 6.57091 15.3359 6.35V2.15C15.3359 1.92909 15.1569 1.75 14.9359 1.75Z" stroke="#9AB69E" stroke-width="2.5"/>
<path d="M15.3359 15.35V11.15C15.3359 10.9291 15.1569 10.75 14.9359 10.75H10.7359C10.515 10.75 10.3359 10.9291 10.3359 11.15V15.35C10.3359 15.5709 10.515 15.75 10.7359 15.75H14.9359C15.1569 15.75 15.3359 15.5709 15.3359 15.35Z" stroke="#9AB69E" stroke-width="2.5"/>
<path d="M1.73594 15.75H5.93594C6.15685 15.75 6.33594 15.5709 6.33594 15.35V11.15C6.33594 10.9291 6.15685 10.75 5.93594 10.75H1.73594C1.51502 10.75 1.33594 10.9291 1.33594 11.15V15.35C1.33594 15.5709 1.51502 15.75 1.73594 15.75Z" stroke="#9AB69E" stroke-width="2.5"/>
<path d="M6.33594 4.25C6.33594 5.63071 5.21665 6.75 3.83594 6.75C2.45523 6.75 1.33594 5.63071 1.33594 4.25C1.33594 2.86929 2.45523 1.75 3.83594 1.75C5.21665 1.75 6.33594 2.86929 6.33594 4.25Z" stroke="#9AB69E" stroke-width="2.5"/>
</svg>
