<svg width="15" height="18" viewBox="0 0 15 18" fill="none" xmlns="http://www.w3.org/2000/svg">
<path d="M5.77493 0.462296C5.10474 0.462296 4.56145 1.00559 4.56145 1.67578C4.56145 2.34597 5.10474 2.88927 5.77493 2.88927V0.462296ZM9.56101 2.88927C10.2312 2.88927 10.7745 2.34597 10.7745 1.67578C10.7745 1.00559 10.2312 0.462296 9.56101 0.462296V2.88927ZM12.9356 5.41443L12.0775 6.27249L12.9356 5.41443ZM12.5504 5.16344L11.7116 4.28652L12.5504 5.16344ZM8.88145 4.66095V1.67578H6.45448V4.66095H8.88145ZM7.66797 0.462296H5.77493V2.88927H7.66797V0.462296ZM7.66797 2.88927H9.56101V0.462296H7.66797V2.88927ZM12.3414 7.04259L13.3892 6.04035L11.7116 4.28652L10.6638 5.28876L12.3414 7.04259ZM11.8281 6.02301L12.0775 6.27249L13.7937 4.55637L13.5442 4.30688L11.8281 6.02301ZM12.1126 4.66011L11.0224 5.65947L12.6623 7.44852L13.7525 6.44916L12.1126 4.66011ZM12.0775 6.27249C11.6281 5.82305 11.644 5.08961 12.1126 4.66011L13.7525 6.44916C14.3026 5.94497 14.3213 5.08397 13.7937 4.55637L12.0775 6.27249ZM13.3892 6.04035C12.9506 6.45986 12.2572 6.45216 11.8281 6.02301L13.5442 4.30688C13.0404 3.8031 12.2264 3.79405 11.7116 4.28652L13.3892 6.04035ZM14.4635 10.243C14.4635 6.48993 11.421 3.44747 7.66797 3.44747V5.87444C10.0807 5.87444 12.0365 7.8303 12.0365 10.243H14.4635ZM3.29942 10.243C3.29942 7.8303 5.25529 5.87444 7.66797 5.87444V3.44747C3.91491 3.44747 0.872452 6.48993 0.872452 10.243H3.29942ZM0.872452 10.243C0.872452 13.996 3.91491 17.0385 7.66797 17.0385V14.6115C5.25529 14.6115 3.29942 12.6557 3.29942 10.243H0.872452ZM12.0365 10.243C12.0365 12.6557 10.0807 14.6115 7.66797 14.6115V17.0385C11.421 17.0385 14.4635 13.996 14.4635 10.243H12.0365Z" fill="#118D3B"/>
<path d="M6.69727 8.30184V10.7288C6.69727 11.287 7.13412 11.7967 7.76513 11.7967H9.51255C10.0487 11.7967 10.4833 11.362 10.4833 10.8259C10.4833 10.2897 10.0487 9.8551 9.51255 9.8551H8.63884V8.30184C8.63884 7.76569 8.20421 7.33105 7.66805 7.33105C7.1319 7.33105 6.69727 7.76569 6.69727 8.30184Z" fill="#118D3B"/>
</svg>
