<svg width="25" height="22" viewBox="0 0 25 22" fill="none" xmlns="http://www.w3.org/2000/svg">
<path d="M22.5471 18.6865L18.2177 19.6486C17.9254 19.7136 17.6482 19.4912 17.6482 19.1917V18.6051V3.88636C17.6482 3.66699 17.8005 3.47705 18.0147 3.42947L22.344 2.46739C22.6363 2.40244 22.9136 2.62486 22.9136 2.92428V18.1371V18.2297C22.9136 18.449 22.7612 18.639 22.5471 18.6865Z" fill="white"/>
<path d="M11.2712 15.1533C11.2712 14.3455 10.6163 13.6907 9.80854 13.6907C9.00076 13.6907 8.34593 14.3455 8.34593 15.1533H11.2712ZM8.34593 6.37764C8.34593 7.18542 9.00076 7.84025 9.80854 7.84025C10.6163 7.84025 11.2712 7.18542 11.2712 6.37764H8.34593ZM18.2177 19.6486L18.535 21.0764L18.535 21.0764L18.2177 19.6486ZM22.5471 18.6865L22.8644 20.1143H22.8644L22.5471 18.6865ZM22.344 2.46739L22.0267 1.03961V1.03961L22.344 2.46739ZM18.0147 3.42947L18.332 4.85725V4.85725L18.0147 3.42947ZM2.08594 10.707L1.04486 9.67965C0.482811 10.2492 0.482811 11.1647 1.04486 11.7343L2.08594 10.707ZM6.53318 8.28253C7.10056 7.70756 7.0944 6.7815 6.51943 6.21413C5.94445 5.64675 5.0184 5.65291 4.45102 6.22788L6.53318 8.28253ZM4.45102 15.1861C5.0184 15.761 5.94445 15.7672 6.51943 15.1998C7.0944 14.6325 7.10056 13.7064 6.53318 13.1314L4.45102 15.1861ZM12.1943 12.1696C13.0021 12.1696 13.6569 11.5148 13.6569 10.707C13.6569 9.8992 13.0021 9.24436 12.1943 9.24436V12.1696ZM22.4455 0.878205H10.2766V3.80344H22.4455V0.878205ZM8.34593 15.1533V18.1371H11.2712V15.1533H8.34593ZM8.34593 2.80886V6.37764H11.2712V2.80886H8.34593ZM24.3762 2.80886C24.3762 1.74259 23.5118 0.878205 22.4455 0.878205V3.80344C21.8962 3.80344 21.451 3.35815 21.451 2.80886H24.3762ZM10.2766 17.1425C10.8259 17.1425 11.2712 17.5878 11.2712 18.1371H8.34593C8.34593 19.2033 9.21031 20.0677 10.2766 20.0677V17.1425ZM10.2766 0.878205C9.21031 0.878205 8.34593 1.74259 8.34593 2.80886H11.2712C11.2712 3.35815 10.8259 3.80344 10.2766 3.80344V0.878205ZM18.535 21.0764L22.8644 20.1143L22.2298 17.2588L17.9004 18.2208L18.535 21.0764ZM22.0267 1.03961L17.6974 2.00168L18.332 4.85725L22.6613 3.89518L22.0267 1.03961ZM24.3762 2.92428C24.3762 1.68915 23.2324 0.771668 22.0267 1.03961L22.6613 3.89518C22.0402 4.0332 21.451 3.56056 21.451 2.92428H24.3762ZM22.8644 20.1143C23.7477 19.918 24.3762 19.1346 24.3762 18.2297H21.451C21.451 17.7635 21.7747 17.3599 22.2298 17.2588L22.8644 20.1143ZM16.1855 19.1917C16.1855 20.4269 17.3293 21.3443 18.535 21.0764L17.9004 18.2208C18.5216 18.0828 19.1108 18.5554 19.1108 19.1917H16.1855ZM19.1108 3.88636C19.1108 4.35252 18.787 4.75613 18.332 4.85725L17.6974 2.00168C16.814 2.19798 16.1855 2.98146 16.1855 3.88636H19.1108ZM3.12702 11.7343L6.53318 8.28253L4.45102 6.22788L1.04486 9.67965L3.12702 11.7343ZM6.53318 13.1314L3.12702 9.67965L1.04486 11.7343L4.45102 15.1861L6.53318 13.1314ZM2.08594 12.1696H12.1943V9.24436H2.08594V12.1696ZM24.3762 2.92428V2.80886H21.451V2.92428H24.3762ZM24.3762 18.2297V18.1371H21.451V18.2297H24.3762ZM24.3762 18.1371V2.92428H21.451V18.1371H24.3762ZM16.1855 3.88636V18.6051H19.1108V3.88636H16.1855ZM16.1855 18.6051V19.1917H19.1108V18.6051H16.1855ZM10.2766 20.0677H17.6482V17.1425H10.2766V20.0677Z" fill="white"/>
</svg>
