<svg width="135" height="37" viewBox="0 0 135 37" fill="none" xmlns="http://www.w3.org/2000/svg">
<path d="M95.4808 9.95016V18.8091H99.7012V9.97247C99.7012 7.98466 100.766 6.14925 102.492 5.16301C104.195 4.18989 106.286 4.18989 107.989 5.16301C109.715 6.14925 110.78 7.98466 110.78 9.97248V18.8091H115V9.95015C115 6.64343 113.326 3.56161 110.552 1.76212C107.321 -0.333468 103.16 -0.333468 99.9294 1.76212C97.1552 3.56161 95.4808 6.64343 95.4808 9.95016Z" fill="black"/>
<path d="M103.394 9.31316C103.394 8.43908 104.103 7.7305 104.977 7.7305C105.851 7.7305 106.559 8.43908 106.559 9.31316V11.4234H107.615C108.489 11.4234 109.197 12.132 109.197 13.006C109.197 13.8801 108.489 14.5887 107.615 14.5887H104.977C104.103 14.5887 103.394 13.8801 103.394 13.006V9.31316Z" fill="black"/>
<path d="M26.8933 18.6156C25.6109 18.6156 24.4616 18.4074 23.4456 17.991C22.4296 17.5746 21.6135 16.9584 20.9972 16.1422C20.3976 15.3261 20.0812 14.3434 20.0479 13.1942H24.5949C24.6615 13.8438 24.8863 14.3434 25.2694 14.6932C25.6525 15.0263 26.1522 15.1929 26.7684 15.1929C27.4013 15.1929 27.901 15.0513 28.2674 14.7681C28.6339 14.4683 28.8171 14.0603 28.8171 13.544C28.8171 13.1109 28.6672 12.7528 28.3674 12.4697C28.0842 12.1865 27.7261 11.9533 27.2931 11.7701C26.8767 11.5869 26.2771 11.3787 25.4943 11.1455C24.3617 10.7958 23.4373 10.446 22.7211 10.0962C22.0049 9.74645 21.3886 9.23012 20.8723 8.54724C20.356 7.86436 20.0978 6.97328 20.0978 5.874C20.0978 4.24174 20.6891 2.96758 21.8717 2.05152C23.0542 1.1188 24.5949 0.652436 26.4936 0.652436C28.4257 0.652436 29.983 1.1188 31.1655 2.05152C32.3481 2.96758 32.981 4.25007 33.0643 5.89898H28.4423C28.409 5.33269 28.2008 4.89131 27.8177 4.57485C27.4347 4.24174 26.9433 4.07518 26.3437 4.07518C25.8274 4.07518 25.411 4.21676 25.0945 4.4999C24.7781 4.76639 24.6198 5.1578 24.6198 5.67413C24.6198 6.24043 24.8863 6.6818 25.4193 6.99826C25.9523 7.31472 26.7851 7.65616 27.9177 8.02259C29.0503 8.40567 29.9663 8.77209 30.6659 9.12186C31.3821 9.47163 31.9983 9.97963 32.5146 10.6459C33.031 11.3121 33.2891 12.1699 33.2891 13.2192C33.2891 14.2185 33.031 15.1262 32.5146 15.9424C32.015 16.7585 31.2821 17.4081 30.3161 17.8911C29.3501 18.3741 28.2091 18.6156 26.8933 18.6156Z" fill="black"/>
<path d="M40.1905 0.902272V18.4407H35.9183V0.902272H40.1905Z" fill="black"/>
<path d="M49.6323 18.6156C48.3498 18.6156 47.2006 18.4074 46.1846 17.991C45.1686 17.5746 44.3524 16.9584 43.7362 16.1422C43.1366 15.3261 42.8201 14.3434 42.7868 13.1942H47.3338C47.4004 13.8438 47.6253 14.3434 48.0084 14.6932C48.3914 15.0263 48.8911 15.1929 49.5074 15.1929C50.1403 15.1929 50.64 15.0513 51.0064 14.7681C51.3728 14.4683 51.556 14.0603 51.556 13.544C51.556 13.1109 51.4061 12.7528 51.1063 12.4697C50.8232 12.1865 50.4651 11.9533 50.032 11.7701C49.6156 11.5869 49.016 11.3787 48.2332 11.1455C47.1006 10.7958 46.1762 10.446 45.46 10.0962C44.7438 9.74645 44.1276 9.23012 43.6112 8.54724C43.0949 7.86436 42.8368 6.97328 42.8368 5.874C42.8368 4.24174 43.428 2.96758 44.6106 2.05152C45.7931 1.1188 47.3338 0.652436 49.2326 0.652436C51.1646 0.652436 52.7219 1.1188 53.9045 2.05152C55.087 2.96758 55.72 4.25007 55.8032 5.89898H51.1813C51.148 5.33269 50.9398 4.89131 50.5567 4.57485C50.1736 4.24174 49.6823 4.07518 49.0827 4.07518C48.5663 4.07518 48.1499 4.21676 47.8335 4.4999C47.517 4.76639 47.3588 5.1578 47.3588 5.67413C47.3588 6.24043 47.6253 6.6818 48.1583 6.99826C48.6912 7.31472 49.524 7.65616 50.6566 8.02259C51.7892 8.40567 52.7053 8.77209 53.4048 9.12186C54.121 9.47163 54.7373 9.97963 55.2536 10.6459C55.7699 11.3121 56.0281 12.1699 56.0281 13.2192C56.0281 14.2185 55.7699 15.1262 55.2536 15.9424C54.7539 16.7585 54.0211 17.4081 53.055 17.8911C52.089 18.3741 50.9481 18.6156 49.6323 18.6156Z" fill="black"/>
<path d="M70.2995 6.44862C69.9831 5.86567 69.5251 5.42429 68.9255 5.12449C68.3425 4.80803 67.6513 4.6498 66.8518 4.6498C65.4694 4.6498 64.3618 5.10784 63.529 6.0239C62.6962 6.92331 62.2798 8.13085 62.2798 9.64652C62.2798 11.2621 62.7129 12.528 63.579 13.444C64.4617 14.3434 65.6693 14.7931 67.2016 14.7931C68.2509 14.7931 69.1336 14.5266 69.8498 13.9937C70.5827 13.4607 71.1157 12.6945 71.4488 11.6952H66.0274V8.54724H75.3212V12.5196C75.0048 13.5856 74.4635 14.5766 73.6973 15.4927C72.9478 16.4087 71.9901 17.1499 70.8242 17.7162C69.6583 18.2825 68.3425 18.5656 66.8768 18.5656C65.1446 18.5656 63.5956 18.1909 62.2299 17.4414C60.8807 16.6752 59.8231 15.6176 59.0569 14.2685C58.3074 12.9194 57.9327 11.3787 57.9327 9.64652C57.9327 7.91432 58.3074 6.37367 59.0569 5.02456C59.8231 3.65879 60.8807 2.60115 62.2299 1.85165C63.579 1.08548 65.1196 0.702403 66.8518 0.702403C68.9504 0.702403 70.7159 1.2104 72.1483 2.2264C73.5974 3.2424 74.5551 4.64981 75.0214 6.44862H70.2995Z" fill="black"/>
<path d="M92.8777 0.902272V18.4407H88.6055V11.2205H81.9598V18.4407H77.6877V0.902272H81.9598V7.77275H88.6055V0.902272H92.8777Z" fill="black"/>
<path d="M39.8551 23.4336V29.3136C39.8551 30.1296 39.6191 30.7656 39.1471 31.2216C38.6751 31.6696 38.0431 31.8936 37.2511 31.8936C36.4511 31.8936 35.8031 31.6616 35.3071 31.1976C34.8191 30.7336 34.5751 30.0856 34.5751 29.2536H36.2551C36.2631 29.6136 36.3471 29.8936 36.5071 30.0936C36.6751 30.2936 36.9151 30.3936 37.2271 30.3936C37.5311 30.3936 37.7631 30.2976 37.9231 30.1056C38.0831 29.9136 38.1631 29.6496 38.1631 29.3136V23.4336H39.8551ZM43.4948 23.4336V31.8096H41.8148V23.4336H43.4948ZM50.2667 26.8176V28.2336H45.1787V26.8176H50.2667ZM58.2588 26.0256C58.2588 26.4736 58.1508 26.8936 57.9348 27.2856C57.7268 27.6776 57.3948 27.9936 56.9388 28.2336C56.4908 28.4736 55.9228 28.5936 55.2348 28.5936H53.8308V31.8096H52.1508V23.4336H55.2348C55.8828 23.4336 56.4348 23.5456 56.8908 23.7696C57.3468 23.9936 57.6868 24.3016 57.9108 24.6936C58.1428 25.0856 58.2588 25.5296 58.2588 26.0256ZM55.1628 27.2376C55.6268 27.2376 55.9708 27.1336 56.1948 26.9256C56.4188 26.7096 56.5308 26.4096 56.5308 26.0256C56.5308 25.2096 56.0748 24.8016 55.1628 24.8016H53.8308V27.2376H55.1628ZM64.5875 30.2136H61.2515L60.6995 31.8096H58.9355L61.9475 23.4216H63.9035L66.9155 31.8096H65.1395L64.5875 30.2136ZM64.1315 28.8696L62.9195 25.3656L61.7075 28.8696H64.1315ZM72.3614 31.8096L70.5134 28.5456H69.7214V31.8096H68.0414V23.4336H71.1854C71.8334 23.4336 72.3854 23.5496 72.8414 23.7816C73.2974 24.0056 73.6374 24.3136 73.8614 24.7056C74.0934 25.0896 74.2094 25.5216 74.2094 26.0016C74.2094 26.5536 74.0494 27.0536 73.7294 27.5016C73.4094 27.9416 72.9334 28.2456 72.3014 28.4136L74.3054 31.8096H72.3614ZM69.7214 27.2856H71.1254C71.5814 27.2856 71.9214 27.1776 72.1454 26.9616C72.3694 26.7376 72.4814 26.4296 72.4814 26.0376C72.4814 25.6536 72.3694 25.3576 72.1454 25.1496C71.9214 24.9336 71.5814 24.8256 71.1254 24.8256H69.7214V27.2856ZM80.8649 30.2136H77.5289L76.9769 31.8096H75.2129L78.2249 23.4216H80.1809L83.1929 31.8096H81.4169L80.8649 30.2136ZM80.4089 28.8696L79.1969 25.3656L77.9849 28.8696H80.4089ZM91.4827 31.8096H89.8027L85.9987 26.0616V31.8096H84.3187V23.4216H85.9987L89.8027 29.1816V23.4216H91.4827V31.8096ZM98.2789 30.2136H94.9429L94.3909 31.8096H92.6269L95.6389 23.4216H97.5949L100.607 31.8096H98.8309L98.2789 30.2136ZM97.8229 28.8696L96.6109 25.3656L95.3989 28.8696H97.8229ZM97.9189 21.6936L95.1589 22.9536V21.7536L97.9189 20.3256V21.6936Z" fill="black"/>
</svg>
